<?xml version="1.0" encoding="UTF-8" standalone="no"?>
<!-- Created with Inkscape (http://www.inkscape.org/) -->

<svg
   width="256"
   height="256"
   viewBox="0 0 67.733332 67.733333"
   version="1.1"
   id="svg5"
   xml:space="preserve"
   inkscape:version="1.2.2 (b0a8486541, 2022-12-01)"
   sodipodi:docname="splashfox_padded.svg"
   inkscape:export-filename="splashfox_padded.png"
   inkscape:export-xdpi="96"
   inkscape:export-ydpi="96"
   xmlns:inkscape="http://www.inkscape.org/namespaces/inkscape"
   xmlns:sodipodi="http://sodipodi.sourceforge.net/DTD/sodipodi-0.dtd"
   xmlns:xlink="http://www.w3.org/1999/xlink"
   xmlns="http://www.w3.org/2000/svg"
   xmlns:svg="http://www.w3.org/2000/svg"><sodipodi:namedview
     id="namedview7"
     pagecolor="#ffffff"
     bordercolor="#000000"
     borderopacity="0.25"
     inkscape:showpageshadow="2"
     inkscape:pageopacity="0.0"
     inkscape:pagecheckerboard="0"
     inkscape:deskcolor="#d1d1d1"
     inkscape:document-units="px"
     showgrid="false"
     inkscape:zoom="1.0343421"
     inkscape:cx="86.045036"
     inkscape:cy="95.713017"
     inkscape:window-width="1920"
     inkscape:window-height="993"
     inkscape:window-x="0"
     inkscape:window-y="0"
     inkscape:window-maximized="1"
     inkscape:current-layer="layer2" /><defs
     id="defs2"><linearGradient
       inkscape:collect="always"
       id="linearGradient879"><stop
         style="stop-color:#ff7505;stop-opacity:1"
         offset="0"
         id="stop875" /><stop
         style="stop-color:#ff8702;stop-opacity:1"
         offset="1"
         id="stop877" /></linearGradient><mask
       maskUnits="userSpaceOnUse"
       id="mask914"><path
         sodipodi:nodetypes="sssssssss"
         inkscape:connector-curvature="0"
         id="path916"
         d="m 154.91191,68.610466 c 0,13.30933 -2.85091,14.61151 -2.85091,22.03668 0,7.52238 3.27922,9.891904 1.87863,15.118954 -1.74673,6.51888 -11.67541,15.3198 -32.30034,19.24611 -19.5495,3.72157 -44.712872,3.71493 -57.603772,1.17936 -12.97147,-2.55141 -33.636043,-9.97066 -35.993433,-20.68009 -3.35292,-15.232034 0.95023,-36.744664 10.314153,-53.450134 13.12204,-23.41004 38.49929,-39.74165 76.385222,-32.80327 18.75365,3.43453 40.17044,20.22728 40.17045,49.35239 z"
         style="opacity:1;fill:#ffffff;fill-opacity:1;fill-rule:evenodd;stroke:none;stroke-width:2.79999995;stroke-linecap:round;stroke-linejoin:round;stroke-miterlimit:4;stroke-dasharray:none;stroke-dashoffset:0;stroke-opacity:1;paint-order:markers stroke fill" /></mask><clipPath
       clipPathUnits="userSpaceOnUse"
       id="clipPath939"><path
         style="opacity:1;fill:#ffffff;fill-opacity:1;fill-rule:evenodd;stroke:none;stroke-width:2.79999995;stroke-linecap:round;stroke-linejoin:round;stroke-miterlimit:4;stroke-dasharray:none;stroke-dashoffset:0;stroke-opacity:1;paint-order:markers stroke fill"
         d="m 150.70195,0.51324812 c -3.5881,-1.83838902 -33.06651,6.51462968 -45.38553,27.09708688 5.48775,7.742314 19.19939,1.052482 24.75224,0.675897 -1.51761,2.342881 -3.95771,7.251483 -4.00944,10.319043 2.25571,0.870741 6.46398,0.348129 8.50111,-1.397205 1.40822,2.738472 0.2768,11.991364 8.03107,13.355 11.96243,-15.595326 13.61577,-47.2291846 8.11055,-50.04982188 z"
         id="path941"
         inkscape:connector-curvature="0"
         sodipodi:nodetypes="scccccs" /></clipPath><clipPath
       clipPathUnits="userSpaceOnUse"
       id="clipPath846"><path
         sodipodi:nodetypes="ssssssscccccccccs"
         inkscape:connector-curvature="0"
         id="path848"
         d="m 391.79445,425.41973 c 1.65688,13.01782 -0.96948,14.64639 -0.0451,21.90893 0.93646,7.35762 4.43884,9.26701 3.71966,14.55393 -0.89694,6.59355 -9.51252,16.43773 -29.19693,22.84564 -18.65801,6.07378 -43.27107,9.19988 -56.19527,8.32464 -13.005,-0.88071 -34.14057,-5.56492 -37.77955,-15.74632 -5.17572,-14.481 -3.54688,-36.67033 3.43423,-53.56343 3.058,-7.39987 11.25258,-21.29807 21.35685,-27.6922 l 8.11698,-0.59557 -12.76711,-1.32585 c 5.83499,-2.87893 11.39007,-4.67336 15.7895,-5.33112 1.44139,0.88585 3.34146,1.6891 5.00507,2.25111 -3.5138,-1.72411 -8.61797,-10.20742 -11.06095,-13.14333 13.21468,-0.66879 24.87025,3.07218 30.03025,5.55927 l -4.32337,-6.20877 c 6.88088,0.77679 11.29124,4.58866 18.48127,4.89245 18.77046,1.02466 41.8087,14.78343 45.43449,43.27062 z"
         style="opacity:1;fill:url(#linearGradient850);fill-opacity:1;fill-rule:evenodd;stroke:none;stroke-width:2.79999995;stroke-linecap:round;stroke-linejoin:round;stroke-miterlimit:4;stroke-dasharray:none;stroke-dashoffset:0;stroke-opacity:1;paint-order:markers stroke fill" /></clipPath><linearGradient
       inkscape:collect="always"
       xlink:href="#linearGradient879"
       id="linearGradient850"
       gradientUnits="userSpaceOnUse"
       gradientTransform="matrix(0.97809727,-0.12449018,0.12449018,0.97809727,231.7888,378.02587)"
       x1="114.28658"
       y1="112.44355"
       x2="95.348198"
       y2="85.856133" /><clipPath
       clipPathUnits="userSpaceOnUse"
       id="clipPath848"><path
         sodipodi:nodetypes="scccccs"
         inkscape:connector-curvature="0"
         id="path850"
         d="M 151.14447,0.33917988 C 146.26964,-2.2314866 116.36421,8.7225203 104.2178,29.016572 c 5.41086,7.633828 19.06431,-0.122979 24.53933,-0.494288 -1.49634,2.310053 -4.03617,8.310589 -4.08717,11.335166 2.22409,0.85854 9.31981,0.611108 12.13198,-2.270484 1.5001,5.35635 -1.15567,17.091196 6.48995,18.435725 10.36626,-17.966089 13.24747,-52.8385826 7.85258,-55.68351112 z"
         style="opacity:1;fill:#333333;fill-opacity:1;fill-rule:evenodd;stroke:none;stroke-width:2.79999995;stroke-linecap:round;stroke-linejoin:round;stroke-miterlimit:4;stroke-dasharray:none;stroke-dashoffset:0;stroke-opacity:1;paint-order:markers stroke fill" /></clipPath></defs><g
     inkscape:label="Layer 1"
     inkscape:groupmode="layer"
     id="layer1"
     style="fill:#000000" /><g
     inkscape:groupmode="layer"
     id="layer2"
     inkscape:label="Layer 2"><rect
       style="fill:#f0323e;fill-opacity:1;stroke:none;stroke-width:0;stroke-dasharray:none"
       id="rect2315"
       width="67.72438"
       height="67.724892"
       x="0.014899787"
       y="0.0014781143" /><g
       id="g2904"
       transform="matrix(0.30925526,0,0,0.3069228,13.816928,6.0287771)"
       inkscape:label="bfox"><g
         id="layer3"
         inkscape:label="Ear  back"><path
           style="opacity:1;fill:#313131;fill-opacity:1;fill-rule:evenodd;stroke:none;stroke-width:2.8;stroke-linecap:round;stroke-linejoin:round;stroke-miterlimit:4;stroke-dasharray:none;stroke-dashoffset:0;stroke-opacity:1;paint-order:markers stroke fill"
           d="M 10.964903,0.26502856 C 17.193083,-2.2848614 33.277463,20.305938 50.782233,26.000478 l -33.59207,20.31895 C 10.785093,36.448318 5.3205629,2.5758986 10.964903,0.26502856 Z"
           id="rect870"
           inkscape:connector-curvature="0"
           sodipodi:nodetypes="sccs" /></g><g
         id="layer4"
         inkscape:label="Body"><path
           style="opacity:1;fill:#ff8702;fill-opacity:1;fill-rule:evenodd;stroke:none;stroke-width:2.8;stroke-linecap:round;stroke-linejoin:round;stroke-miterlimit:4;stroke-dasharray:none;stroke-dashoffset:0;stroke-opacity:1;paint-order:markers stroke fill"
           d="m 126.19432,69.473158 c 0,13.12284 -2.81096,14.40677 -2.81096,21.7279 0,7.41698 3.23327,9.753302 1.85232,14.907102 -1.72226,6.42754 -11.51181,15.10514 -31.847749,18.97643 -19.27557,3.66943 -44.086348,3.66288 -56.796618,1.16284 C 23.801593,123.73177 3.4265829,116.41648 1.1022229,105.85711 -2.2037171,90.838508 2.1408209,68.990604 11.271853,53.155928 19.908649,38.178335 30.267422,28.351497 44.081413,28.815888 L 30.311552,25.486892 c 10.007408,-2.486949 14.432585,-3.465851 23.293821,0.753186 -5.124314,-3.936115 -7.980575,-11.805676 -10.31743,-15.21595 13.19337,1.00504 24.28333,6.8127 29.08802,9.93139 l -1.800228,-7.487786 c 6.191096,1.891888 8.916886,6.135396 16.011016,7.344566 18.490879,3.3864 39.607569,19.94386 39.607569,48.66086 z"
           id="path837"
           inkscape:connector-curvature="0"
           sodipodi:nodetypes="ssssssscccccccs" /></g><g
         id="layer5"
         inkscape:label="Ear front"><path
           sodipodi:nodetypes="scccccs"
           inkscape:connector-curvature="0"
           id="path873"
           d="M 125.28524,0.37813902 C 120.30487,-2.2481557 89.751956,8.942913 77.342566,29.676181 c 5.52801,7.799032 19.477069,-0.125642 25.070654,-0.504988 -1.52875,2.360045 -4.123583,8.49045 -4.175687,11.580478 2.272247,0.877121 9.521617,0.624336 12.394667,-2.319618 1.53257,5.472273 -1.18069,17.461091 6.63047,18.834709 10.59069,-18.354905 13.53429,-53.9821224 8.02257,-56.88862298 z"
           style="opacity:1;fill:#313131;fill-opacity:1;fill-rule:evenodd;stroke:none;stroke-width:2.8;stroke-linecap:round;stroke-linejoin:round;stroke-miterlimit:4;stroke-dasharray:none;stroke-dashoffset:0;stroke-opacity:1;paint-order:markers stroke fill" /><path
           style="opacity:1;fill:#ebdccc;fill-opacity:1;fill-rule:evenodd;stroke:none;stroke-width:2.74361;stroke-linecap:round;stroke-linejoin:round;stroke-miterlimit:4;stroke-dasharray:none;stroke-dashoffset:0;stroke-opacity:1;paint-order:markers stroke fill"
           d="m 148.35911,4.3356447 c -1.78771,-0.8484478 -11.00575,2.906299 -16.19325,7.6720183 -10.53309,9.676667 -1.07136,22.664674 -28.29413,20.811212 6.00859,14.75387 19.11803,20.290527 34.81182,24.002583 -2.67038,-18.583744 9.24321,-19.504661 10.95019,-39.43404 0.64348,-7.5127806 0.14869,-12.3762659 -1.27463,-13.0517733 z"
           id="path958"
           inkscape:connector-curvature="0"
           sodipodi:nodetypes="ssccss"
           clip-path="url(#clipPath848)"
           transform="matrix(1.0194668,0,0,1.0216422,-28.904012,0.13415088)" /></g><g
         inkscape:label="Face"
         id="layer1-6"
         transform="translate(-26.911905,0.03095311)"><ellipse
           style="opacity:1;fill:#313131;fill-opacity:1;fill-rule:evenodd;stroke:none;stroke-width:2.81259;stroke-linecap:round;stroke-linejoin:round;stroke-miterlimit:4;stroke-dasharray:none;stroke-dashoffset:0;stroke-opacity:1;paint-order:markers stroke fill"
           id="path885"
           cx="108.5539"
           cy="77.193321"
           rx="8.8029327"
           ry="9.9818306"
           transform="matrix(0.98788676,-0.15517654,0.02204363,0.99975701,0,0)" /><ellipse
           transform="matrix(0.99926374,0.03836633,-0.17815691,0.98400209,0,0)"
           ry="9.6092548"
           rx="8.1564407"
           cy="51.880444"
           cx="72.125847"
           id="ellipse887"
           style="opacity:1;fill:#313131;fill-opacity:1;fill-rule:evenodd;stroke:none;stroke-width:2.81395;stroke-linecap:round;stroke-linejoin:round;stroke-miterlimit:4;stroke-dasharray:none;stroke-dashoffset:0;stroke-opacity:1;paint-order:markers stroke fill" /><path
           style="fill:none;fill-opacity:1;stroke:#313131;stroke-width:4.4;stroke-linecap:round;stroke-linejoin:round;stroke-miterlimit:4;stroke-dasharray:none;stroke-opacity:1"
           d="m 57.615871,85.836285 c 0.855114,4.129123 3.205731,9.396985 5.478503,12.883308 4.397218,-2.34217 7.197383,-6.82007 10.589802,-9.974459 1.592567,2.095526 5.138807,9.447328 8.650919,13.000236 4.601206,-2.641353 10.303767,-8.562335 11.777228,-9.94237"
           id="path889"
           inkscape:connector-curvature="0"
           sodipodi:nodetypes="ccccc" /><path
           style="opacity:1;fill:#313131;fill-opacity:1;fill-rule:evenodd;stroke:none;stroke-width:3.8;stroke-linecap:round;stroke-linejoin:round;stroke-miterlimit:4;stroke-dasharray:none;stroke-dashoffset:0;stroke-opacity:1;paint-order:markers stroke fill"
           d="m 84.232155,75.45973 c 0,1.687965 -7.613015,7.386412 -10.474045,7.028194 -3.082324,-0.385924 -7.026816,-8.012061 -6.415542,-9.582319 1.551878,-3.986518 16.889587,-2.096463 16.889587,2.554125 z"
           id="rect902"
           inkscape:connector-curvature="0"
           sodipodi:nodetypes="ssss" /><path
           style="display:inline;fill:none;stroke:#313131;stroke-width:4;stroke-linecap:round;stroke-linejoin:round;stroke-miterlimit:4;stroke-dasharray:none;stroke-opacity:1"
           d="m 69.092765,52.985546 c -0.511675,8.833129 -2.35248,12.240392 -6.80356,16.019479 -3.576393,3.036453 -3.638824,8.113282 -1.819049,10.715762"
           id="path890"
           inkscape:connector-curvature="0"
           sodipodi:nodetypes="csc" /></g><g
         id="layer6"
         inkscape:label="Whiskers"
         style="display:none"><path
           style="fill:none;fill-opacity:1;stroke:#313131;stroke-width:2.5;stroke-linecap:round;stroke-linejoin:round;stroke-miterlimit:4;stroke-dasharray:none;stroke-opacity:1"
           d="m 68.645975,77.025193 c 9.338035,-1.395359 20.51424,-0.625306 30.695296,1.011356"
           id="path943"
           inkscape:connector-curvature="0"
           sodipodi:nodetypes="cc" /><path
           sodipodi:nodetypes="cc"
           inkscape:connector-curvature="0"
           id="path945"
           d="m 67.228811,83.13089 c 11.440451,0.448873 21.054841,4.550435 30.034524,11.48183"
           style="fill:none;fill-opacity:1;stroke:#313131;stroke-width:2.5;stroke-linecap:round;stroke-linejoin:round;stroke-miterlimit:4;stroke-dasharray:none;stroke-opacity:1" /><path
           sodipodi:nodetypes="cc"
           inkscape:connector-curvature="0"
           id="path947"
           d="M 32.895393,71.456936 C 26.718997,67.627467 21.192825,65.440905 14.567884,63.58624"
           style="fill:none;fill-opacity:1;stroke:#313131;stroke-width:2.5;stroke-linecap:round;stroke-linejoin:round;stroke-miterlimit:4;stroke-dasharray:none;stroke-opacity:1" /><path
           style="fill:none;fill-opacity:1;stroke:#313131;stroke-width:2.5;stroke-linecap:round;stroke-linejoin:round;stroke-miterlimit:4;stroke-dasharray:none;stroke-opacity:1"
           d="M 32.16221,76.367993 C 24.397529,74.197356 17.839504,73.28738 10.803794,73.046759"
           id="path949"
           inkscape:connector-curvature="0"
           sodipodi:nodetypes="cc" /></g></g><rect
       style="fill:none;fill-opacity:1;stroke:#ffffff;stroke-width:1.17324;stroke-dasharray:none;stroke-opacity:1"
       id="rect3321"
       width="47.076954"
       height="7.5132813"
       x="10.890984"
       y="51.267097" /><rect
       style="fill:#ffffff;fill-opacity:1;stroke:none;stroke-width:0.645446;stroke-dasharray:none;stroke-opacity:1"
       id="rect3531"
       width="24.674704"
       height="4.3384266"
       x="12.437612"
       y="52.876671" /></g></svg>
